# This file uses centimeters as units for non-parametric coordinates.

mtllib building.mtl
g default
v -5.000000 -25.000000 25.000000
v 5.000000 -25.000000 25.000000
v -5.000000 25.000000 25.000000
v 5.000000 25.000000 25.000000
v -5.000000 25.000000 -25.000000
v 5.000000 25.000000 -25.000000
v -5.000000 -25.000000 -25.000000
v 5.000000 -25.000000 -25.000000
vt 0.013110 0.000000
vt 0.013110 0.000000
vt 0.013110 1.000000
vt 0.013110 1.000000
vt 0.489823 1.000000
vt 0.489823 1.000000
vt 0.489823 0.000000
vt 0.489823 0.000000
vt 0.798327 0.003984
vt 0.997531 0.003984
vt 0.997531 1.000000
vt 0.798327 1.000000
vt 0.997531 1.000000
vt 0.798327 1.000000
vt 0.798327 0.003984
vt 0.997531 0.003984
vt 0.550000 0.003984
vt 0.749203 0.003984
vt 0.749203 1.000000
vt 0.550000 1.000000
vt 0.550000 0.003984
vt 0.749203 0.003984
vt 0.749203 1.000000
vt 0.550000 1.000000
vn 0.000000 0.000000 1.000000
vn 0.000000 0.000000 1.000000
vn 0.000000 0.000000 1.000000
vn 0.000000 0.000000 1.000000
vn 0.000000 1.000000 0.000000
vn 0.000000 1.000000 0.000000
vn 0.000000 1.000000 0.000000
vn 0.000000 1.000000 0.000000
vn 0.000000 0.000000 -1.000000
vn 0.000000 0.000000 -1.000000
vn 0.000000 0.000000 -1.000000
vn 0.000000 0.000000 -1.000000
vn 0.000000 -1.000000 0.000000
vn 0.000000 -1.000000 0.000000
vn 0.000000 -1.000000 0.000000
vn 0.000000 -1.000000 0.000000
vn 1.000000 0.000000 0.000000
vn 1.000000 0.000000 0.000000
vn 1.000000 0.000000 0.000000
vn 1.000000 0.000000 0.000000
vn -1.000000 0.000000 0.000000
vn -1.000000 0.000000 0.000000
vn -1.000000 0.000000 0.000000
vn -1.000000 0.000000 0.000000
s off
g building_01:pCube1
usemtl building_01:lambert2SG
f 1/17/1 2/18/2 4/19/3 3/20/4
f 3/9/5 4/10/6 6/11/7 5/12/8
f 5/21/9 6/22/10 8/23/11 7/24/12
f 7/13/13 8/14/14 2/15/15 1/16/16
f 2/2/17 8/7/18 6/5/19 4/3/20
f 7/8/21 1/1/22 3/4/23 5/6/24
