# This file uses centimeters as units for non-parametric coordinates.

mtllib building_01.mtl
g default
v -5.000000 -25.000000 25.000000
v 5.000000 -25.000000 25.000000
v -5.000000 25.000000 25.000000
v 5.000000 25.000000 25.000000
v -5.000000 25.000000 -25.000000
v 5.000000 25.000000 -25.000000
v -5.000000 -25.000000 -25.000000
v 5.000000 -25.000000 -25.000000
vt 0.613676 -0.005592
vt 0.968952 -0.005592
vt 0.968952 1.001401
vt 0.613676 1.001401
vt 0.619622 -0.006714
vt 0.974898 -0.006714
vt 0.974898 1.000279
vt 0.619622 1.000279
vt 0.617274 -0.005590
vt 0.972551 -0.005590
vt 0.972551 1.001403
vt 0.617274 1.001403
vt 0.615705 -0.006714
vt 0.970982 -0.006714
vt 0.970982 1.000279
vt 0.615705 1.000279
vt 0.000000 0.000000
vt 1.000000 0.000000
vt 1.000000 1.000000
vt 0.000000 1.000000
vt 1.000000 0.000000
vt 0.000000 0.000000
vt 0.000000 1.000000
vt 1.000000 1.000000
vn 0.000000 0.000000 1.000000
vn 0.000000 0.000000 1.000000
vn 0.000000 0.000000 1.000000
vn 0.000000 0.000000 1.000000
vn 0.000000 1.000000 0.000000
vn 0.000000 1.000000 0.000000
vn 0.000000 1.000000 0.000000
vn 0.000000 1.000000 0.000000
vn 0.000000 0.000000 -1.000000
vn 0.000000 0.000000 -1.000000
vn 0.000000 0.000000 -1.000000
vn 0.000000 0.000000 -1.000000
vn 0.000000 -1.000000 0.000000
vn 0.000000 -1.000000 0.000000
vn 0.000000 -1.000000 0.000000
vn 0.000000 -1.000000 0.000000
vn 1.000000 0.000000 0.000000
vn 1.000000 0.000000 0.000000
vn 1.000000 0.000000 0.000000
vn 1.000000 0.000000 0.000000
vn -1.000000 0.000000 0.000000
vn -1.000000 0.000000 0.000000
vn -1.000000 0.000000 0.000000
vn -1.000000 0.000000 0.000000
s off
g pCube1
usemtl lambert2SG
f 1/9/1 2/10/2 4/11/3 3/12/4
f 3/1/5 4/2/6 6/3/7 5/4/8
f 5/13/9 6/14/10 8/15/11 7/16/12
f 7/5/13 8/6/14 2/7/15 1/8/16
f 2/17/17 8/18/18 6/19/19 4/20/20
f 7/21/21 1/22/22 3/23/23 5/24/24
