# This file uses centimeters as units for non-parametric coordinates.

mtllib house.mtl
g default
v -5.723660 0.000000 3.488859
v 5.723659 0.000000 3.488859
v -5.723660 0.000000 -3.488859
v 5.723659 0.000000 -3.488859
v -5.723660 7.614318 3.488859
v 5.723659 7.614318 3.488859
v -5.723660 7.614318 -3.488859
v 5.723659 7.614318 -3.488859
v -5.723660 7.614318 -2.791088
v -5.723660 0.000000 -2.791088
v -5.723660 0.000000 -0.907103
v -5.723660 7.614318 -0.907103
v -5.723660 5.330021 -2.791088
v -5.723660 5.330021 -0.907103
v -5.723660 3.198013 -0.907103
v -5.723660 3.198013 -2.791088
v -5.723660 5.116821 -2.791088
v -5.723660 5.116821 -0.907103
v -5.723660 3.389894 -0.907103
v -5.723660 3.389894 -2.791088
v -5.723660 5.116821 -1.095502
v -5.723660 3.389894 -1.095502
v -5.723660 5.116821 -2.621529
v -5.723660 3.389894 -2.621529
v -5.983622 5.116821 -2.791088
v -5.983622 5.116821 -2.621529
v -5.983622 5.116821 -1.095502
v -5.983622 5.116821 -0.907103
v -5.983622 5.330021 -0.907103
v -5.983622 5.330021 -2.791088
v -5.983622 3.198013 -0.907103
v -5.983622 3.198013 -2.791088
v -5.983622 3.389894 -0.907103
v -5.983622 3.389894 -1.095502
v -5.983622 3.389894 -2.621529
v -5.983622 3.389894 -2.791088
v -5.723660 10.656458 -0.000009
v 5.723659 10.656458 0.000000
vt 0.823514 0.279501
vt 0.823514 0.344780
vt 0.072556 0.522219
vt 0.072556 0.606893
vt 0.949150 0.497098
vt 0.769671 0.497098
vt 0.828540 0.344780
vt 0.869246 0.344780
vt 0.873768 0.344780
vt 0.949150 0.344780
vt 0.254942 0.481450
vt 0.949150 0.279501
vt 0.873768 0.279501
vt 0.869246 0.279501
vt 0.828540 0.279501
vt 0.072556 0.638254
vt 0.949150 0.255323
vt 0.949149 0.980648
vt 0.769670 0.980648
vt 0.704457 0.334679
vt 0.949149 0.738873
vt 0.575546 0.491482
vt 0.399643 0.769074
vt 0.399643 0.761454
vt 0.399643 0.692868
vt 0.399643 0.684400
vt 0.405484 0.684400
vt 0.405484 0.769074
vt 0.352332 0.769074
vt 0.352332 0.761454
vt 0.352332 0.692868
vt 0.352332 0.684400
vt 0.347076 0.769074
vt 0.347076 0.684400
vt 0.494928 0.913961
vt 0.494906 0.729623
vt 0.494870 0.797972
vt 0.494860 0.845284
vt 0.300032 0.012599
vt 0.563604 0.012599
vt 0.563604 0.276173
vt 0.300032 0.276173
vt 0.300032 0.249815
vt 0.300032 0.178650
vt 0.501986 0.845279
vt 0.502059 0.913954
vt 0.438618 0.885904
vt 0.438330 0.970574
vt 0.431208 0.970550
vt 0.431496 0.885873
vt 0.439128 0.742812
vt 0.438935 0.827495
vt 0.431813 0.827468
vt 0.432006 0.742804
vt 0.502002 0.729631
vt 0.501980 0.797974
vt 0.769670 0.738873
vt 0.278637 0.380158
vt 0.536816 0.487520
vt 0.278637 0.487520
vt 0.769671 0.255323
vt 0.536816 0.594882
vt 0.949150 0.013548
vt 0.438650 0.880067
vt 0.431528 0.880029
vt 0.438906 0.832758
vt 0.431784 0.832719
vt 0.439128 0.684401
vt 0.439128 0.690241
vt 0.432006 0.690241
vt 0.432006 0.684401
vt 0.439128 0.737551
vt 0.432006 0.737551
vt 0.502071 0.682502
vt 0.769670 0.344780
vt 0.769671 0.279501
vt 0.072556 0.324647
vt 0.278637 0.594882
vt 0.769670 0.013548
vt 0.536816 0.380158
vt 0.704457 0.648286
vt 0.582834 0.752987
vt 0.494977 0.682493
vt 0.535523 0.752986
vt 0.582834 0.684400
vt 0.535523 0.684400
vn 0.000000 1.000000 0.000000
vn 0.000000 1.000000 0.000000
vn 0.000000 1.000000 0.000000
vn 0.000000 1.000000 0.000000
vn 0.000000 1.000000 0.000000
vn 0.000000 1.000000 0.000000
vn 0.000000 0.000000 1.000000
vn -0.000000 0.311143 0.950363
vn -0.000000 0.311143 0.950363
vn 0.000000 0.000000 1.000000
vn -1.000000 -0.000000 0.000000
vn -1.000000 -0.000000 0.000000
vn -1.000000 0.000000 0.000000
vn -1.000000 -0.000000 0.000000
vn 1.000000 0.000000 0.000000
vn 1.000000 0.000000 0.000000
vn 1.000000 0.000000 0.000000
vn 1.000000 0.000000 0.000000
vn 0.000000 0.000000 -1.000000
vn 0.000000 0.311143 -0.950363
vn 0.000000 0.311143 -0.950363
vn 0.000000 0.000000 -1.000000
vn -1.000000 0.000000 0.000000
vn -1.000000 0.000000 0.000000
vn -1.000000 0.000000 0.000000
vn -1.000000 0.000000 0.000000
vn -1.000000 0.000000 0.000000
vn -1.000000 0.000000 0.000000
vn -1.000000 0.000000 0.000000
vn -1.000000 0.000000 0.000000
vn -1.000000 0.000000 0.000000
vn -1.000000 0.000000 0.000000
vn -1.000000 0.000000 0.000000
vn -1.000000 0.000000 0.000000
vn -1.000000 0.000000 0.000000
vn -1.000000 0.000000 0.000000
vn -1.000000 -0.000000 0.000000
vn -1.000000 0.000005 0.000000
vn -1.000000 0.000000 0.000000
vn -1.000000 0.000003 0.000000
vn -1.000000 -0.000007 0.000000
vn -1.000000 -0.000001 0.000000
vn -1.000000 -0.000002 0.000000
vn -1.000000 0.000006 0.000000
vn -1.000000 0.000000 0.000000
vn -1.000000 0.000000 0.000000
vn -1.000000 0.000000 0.000000
vn -1.000000 0.000000 0.000000
vn -1.000000 0.000000 0.000000
vn -1.000000 0.000000 0.000000
vn 0.000000 -1.000000 0.000000
vn 0.000000 -1.000000 0.000000
vn 0.000000 -1.000000 0.000000
vn 0.000000 -1.000000 0.000000
vn 0.000000 0.000000 1.000000
vn 0.000000 0.000000 1.000000
vn 0.000000 0.000000 1.000000
vn 0.000000 0.000000 1.000000
vn 0.000000 1.000000 0.000000
vn 0.000000 1.000000 0.000000
vn 0.000000 1.000000 0.000000
vn 0.000000 1.000000 0.000000
vn 0.000000 -0.000001 -1.000000
vn 0.000000 -0.000000 -1.000000
vn 0.000000 -0.000000 -1.000000
vn 0.000000 -0.000001 -1.000000
vn 0.000000 -1.000000 0.000000
vn 0.000000 -1.000000 0.000000
vn 0.000000 -1.000000 0.000000
vn 0.000000 -1.000000 0.000000
vn 0.000000 0.000000 1.000000
vn 0.000000 0.000000 1.000000
vn 0.000000 0.000000 1.000000
vn 0.000000 0.000000 1.000000
vn 0.000000 1.000000 0.000000
vn 0.000000 1.000000 0.000000
vn 0.000000 1.000000 0.000000
vn 0.000000 1.000000 0.000000
vn 0.000000 0.000000 -1.000000
vn 0.000000 0.000001 -1.000000
vn 0.000000 0.000001 -1.000000
vn 0.000000 0.000000 -1.000000
vn 0.000000 0.000000 -1.000000
vn 0.000000 0.000000 -1.000000
vn 0.000000 0.000000 -1.000000
vn 0.000000 0.000000 -1.000000
vn 0.000000 -0.000000 1.000000
vn 0.000000 -0.000000 1.000000
vn 0.000000 -0.000000 1.000000
vn 0.000000 -0.000000 1.000000
vn -0.000000 0.753712 0.657205
vn -0.000000 0.753712 0.657205
vn -1.000000 0.000000 0.000000
vn 1.000000 0.000000 0.000000
vn 0.000000 0.753711 -0.657206
vn 0.000000 0.753711 -0.657206
s 1
g JC_house:pPlane2
usemtl initialShadingGroup
f 1/39/1 2/40/2 11/44/3
f 2/40/2 4/41/4 11/44/3
f 11/44/3 4/41/4 10/43/5
f 4/41/4 3/42/6 10/43/5
s 2
f 2/21/7 6/57/8 5/6/9 1/5/10
s 3
f 13/1/11 14/2/12 12/75/13 9/76/14
s 4
f 4/18/15 8/19/16 6/57/17 2/21/18
s 5
f 3/17/19 7/61/20 8/79/21 4/63/22
s 3
f 10/12/23 16/13/24 3/17/25
f 3/17/25 16/13/24 7/61/26
f 16/13/24 20/14/27 7/61/26
f 20/14/27 17/15/28 7/61/26
f 17/15/28 13/1/11 7/61/26
f 13/1/11 9/76/14 7/61/26
f 1/5/29 5/6/30 11/10/31
f 11/10/31 5/6/30 15/9/32
f 15/9/32 5/6/30 19/8/33
f 19/8/33 5/6/30 18/7/34
f 18/7/34 5/6/30 14/2/12
f 5/6/30 12/75/13 14/2/12
f 11/10/31 15/9/32 16/13/24 10/12/23
s 8
f 25/23/35 26/24/36 30/28/37
f 30/28/37 26/24/36 29/27/38
f 28/26/39 29/27/38 27/25/40
f 26/24/36 27/25/40 29/27/38
f 32/33/41 31/34/42 36/29/43
f 36/29/43 31/34/42 35/30/44
f 33/32/45 34/31/46 31/34/42
f 31/34/42 34/31/46 35/30/44
f 27/25/40 34/31/46 33/32/45 28/26/39
s off
f 23/82/47 24/84/48 22/86/49 21/85/50
s 8
f 36/29/43 35/30/44 26/24/36 25/23/35
s off
f 23/35/51 21/38/52 27/45/53 26/46/54
s 10
f 18/64/55 14/47/56 29/50/57 28/65/58
s off
f 14/47/59 13/48/60 30/49/61 29/50/62
s 11
f 13/68/63 17/69/64 25/70/65 30/71/66
s off
f 16/51/67 15/52/68 31/53/69 32/54/70
s 10
f 15/52/71 19/66/72 33/67/73 31/53/74
s off
f 22/37/75 24/36/76 35/55/77 34/56/78
s 11
f 20/72/79 16/51/80 32/54/81 36/73/82
s off
f 21/38/83 22/37/84 34/56/85 27/45/86
s 10
f 19/66/72 18/64/55 28/65/58 33/67/73
s off
f 24/36/87 23/83/88 26/74/89 35/55/90
s 11
f 17/69/64 20/72/79 36/73/82 25/70/65
s 2
f 5/58/9 6/80/8 38/59/91 37/60/92
s 3
f 12/3/13 5/77/30 37/11/93
s 4
f 6/20/17 8/81/16 38/22/94
s 5
f 8/62/21 7/78/20 37/60/95 38/59/96
s 3
f 7/16/26 9/4/14 37/11/93
f 9/4/14 12/3/13 37/11/93
